<svg width="64" height="64" viewBox="0 0 64 64" fill="none" xmlns="http://www.w3.org/2000/svg">
<g id="https://lottiefiles.com/animations/checked-zBAXfHoRai" clip-path="url(#clip0_37128_43348)">
<g id="Clip path group">
<mask id="mask0_37128_43348" style="mask-type:luminance" maskUnits="userSpaceOnUse" x="0" y="0" width="64" height="64">
<g id="__lottie_element_1547">
<path id="Vector" d="M64 0H0V64H64V0Z" fill="white"/>
</g>
</mask>
<g mask="url(#mask0_37128_43348)">
<g id="Group">
<g id="Group_2" opacity="0.484846">
<g id="Group_3">
<path id="Vector_2" d="M31.9488 0.191406C49.5245 0.191406 63.7726 14.4395 63.7726 32.0152C63.7726 49.5911 49.5245 63.839 31.9488 63.839C14.3731 63.839 0.125 49.5911 0.125 32.0152C0.125 14.4395 14.3731 0.191406 31.9488 0.191406Z" fill="#E2F0E4"/>
</g>
</g>
<g id="Group_4">
<g id="Group_5">
<path id="Vector_3" d="M32.0242 11.2422C43.4766 11.2422 52.775 20.5406 52.775 31.993C52.775 43.4454 43.4766 52.7438 32.0242 52.7438C20.5719 52.7438 11.2734 43.4454 11.2734 31.993C11.2734 20.5406 20.5719 11.2422 32.0242 11.2422Z" fill="#169256"/>
<path id="Vector_4" d="M32.0242 11.2422C43.4766 11.2422 52.775 20.5406 52.775 31.993C52.775 43.4454 43.4766 52.7438 32.0242 52.7438C20.5719 52.7438 11.2734 43.4454 11.2734 31.993C11.2734 20.5406 20.5719 11.2422 32.0242 11.2422Z" stroke="#169256" stroke-width="18.895" stroke-linecap="round" stroke-linejoin="round"/>
</g>
</g>
<g id="Group_6">
<g id="Group_7">
<path id="Vector_5" d="M41.7079 25.3594L28.1837 38.8835L21.207 31.9068" stroke="white" stroke-width="3.04214" stroke-linecap="round" stroke-linejoin="round"/>
</g>
</g>
</g>
</g>
</g>
</g>
<defs>
<clipPath id="clip0_37128_43348">
<rect width="64" height="64" fill="white"/>
</clipPath>
</defs>
</svg>
