<svg xmlns="http://www.w3.org/2000/svg" width="66" height="56" viewBox="0 0 66 56" fill="none">
  <path d="M64.9268 56.0004H50.6081C50.3398 56.0004 50.1289 55.7896 50.1289 55.5212C50.1289 55.2528 50.3398 55.042 50.6081 55.042H64.9268C65.1952 55.042 65.406 55.2528 65.406 55.5212C65.406 55.7896 65.1952 56.0004 64.9268 56.0004Z" fill="currentColor"/>
  <path d="M47.1765 56.0004H1.07686C0.808507 56.0004 0.597656 55.7896 0.597656 55.5212C0.597656 55.2528 0.808507 55.042 1.07686 55.042H47.1669C47.4353 55.042 47.6461 55.2528 47.6461 55.5212C47.6461 55.7896 47.4353 56.0004 47.1669 56.0004H47.1765Z" fill="currentColor"/>
  <path d="M47.3621 6.29677C42.8096 2.11809 37.5287 0 31.5674 0C25.6061 0 20.3061 2.10851 15.7536 6.29677C11.2011 10.4946 8.92969 16.1301 8.92969 23.1744C8.92969 25.8388 9.49515 28.5128 10.6548 31.2443C11.8145 33.9757 13.3001 36.6593 15.1498 39.2949C16.9995 41.921 19.0985 44.4704 21.4082 46.9047C23.7563 49.3679 26.0661 51.6585 28.4142 53.8053C28.8359 54.2078 29.3343 54.5241 29.8806 54.7062C30.4269 54.8883 30.9828 55.0033 31.5482 55.0033L31.5099 55.0417C32.0754 55.0417 32.6312 54.9362 33.1967 54.7446C33.7622 54.5625 34.2414 54.2462 34.6631 53.8436C37.0112 51.6968 39.3401 49.4062 41.6691 46.9431C43.998 44.4991 46.0874 41.9497 47.9275 39.3333C49.7773 36.7072 51.2628 34.0141 52.4225 31.2826C53.5822 28.5511 54.1476 25.8484 54.1476 23.2128C54.1476 16.1301 51.8762 10.4946 47.3237 6.29677H47.3621ZM31.5674 31.781C25.4911 31.781 20.5552 26.8643 20.5552 20.7688C20.5552 14.6733 25.4911 9.75664 31.5674 9.75664C37.6437 9.75664 42.5796 14.6925 42.5796 20.7688C42.5796 26.8451 37.6629 31.781 31.5674 31.781Z" fill="currentColor"/>
  <path d="M30.1958 23.0311V22.8395C30.1958 22.1973 30.2533 21.6894 30.3683 21.306C30.4833 20.9226 30.6462 20.6159 30.8571 20.3859C31.0679 20.1559 31.3363 19.9355 31.643 19.7438C31.873 19.6 32.0743 19.4467 32.2564 19.2837C32.4385 19.1304 32.5822 18.9483 32.6876 18.7566C32.7931 18.5649 32.8506 18.3445 32.8506 18.1145C32.8506 17.8653 32.7931 17.6353 32.6685 17.4532C32.5439 17.2711 32.3809 17.1177 32.1797 17.0123C31.9784 16.9069 31.7484 16.859 31.5088 16.859C31.2692 16.859 31.0488 16.9069 30.8283 17.0123C30.6175 17.1177 30.445 17.2711 30.3108 17.4723C30.1766 17.6736 30.0999 17.9228 30.0903 18.2295H27.8477C27.8668 17.4915 28.0393 16.8877 28.3748 16.4085C28.7102 15.9293 29.1511 15.5747 29.6974 15.3351C30.2437 15.0955 30.8571 14.9805 31.5184 14.9805C32.2468 14.9805 32.8985 15.0955 33.4544 15.3447C34.0198 15.5843 34.4511 15.9293 34.777 16.3893C35.1028 16.8494 35.2562 17.3957 35.2562 18.0378C35.2562 18.4691 35.1891 18.8429 35.0453 19.1783C34.9016 19.5138 34.7099 19.8013 34.4511 20.0601C34.2019 20.3188 33.8952 20.5488 33.5502 20.7501C33.2627 20.9226 33.0231 21.1047 32.841 21.2868C32.6589 21.4785 32.5151 21.6894 32.4289 21.9385C32.3426 22.1877 32.2947 22.4848 32.2851 22.849V23.0407H30.1958V23.0311ZM31.2884 26.5485C30.9242 26.5485 30.6079 26.4239 30.3491 26.1651C30.0903 25.9064 29.9658 25.5997 29.9658 25.2355C29.9658 24.8809 30.0903 24.5646 30.3491 24.3154C30.6079 24.0566 30.9242 23.932 31.2884 23.932C31.6334 23.932 31.9401 24.0566 32.2084 24.3154C32.4672 24.5742 32.6014 24.8809 32.611 25.2355C32.611 25.4751 32.5439 25.6955 32.4193 25.8968C32.2947 26.0981 32.1318 26.2514 31.9401 26.376C31.7388 26.491 31.528 26.5581 31.2884 26.5581V26.5485Z" fill="currentColor"/>
  <path d="M13.1006 46.3966C12.3626 45.6587 12.3626 44.4606 13.1006 43.7227C13.2922 43.531 13.2922 43.2339 13.1006 43.0422C12.9089 42.8505 12.6118 42.8505 12.4201 43.0422C11.6821 43.7802 10.4841 43.7802 9.74611 43.0422C9.55443 42.8505 9.25732 42.8505 9.06564 43.0422C8.87395 43.2339 8.87395 43.531 9.06564 43.7227C9.80361 44.4606 9.80361 45.6587 9.06564 46.3966C8.87395 46.5883 8.87395 46.8854 9.06564 47.0771C9.25732 47.2688 9.55443 47.2688 9.74611 47.0771C10.4841 46.3391 11.6821 46.3391 12.4201 47.0771C12.6118 47.2688 12.9089 47.2688 13.1006 47.0771C13.2922 46.8854 13.2922 46.5883 13.1006 46.3966Z" fill="currentColor"/>
  <path d="M63.0018 12.6034C61.9955 11.5971 61.9955 9.9582 63.0018 8.95186C63.2606 8.69309 63.2606 8.28098 63.0018 8.0222C62.7431 7.76343 62.3309 7.76343 62.0722 8.0222C61.0658 9.02854 59.4269 9.02854 58.4206 8.0222C58.1618 7.76343 57.7497 7.76343 57.491 8.0222C57.2322 8.28098 57.2322 8.69309 57.491 8.95186C58.4973 9.9582 58.4973 11.5971 57.491 12.6034C57.2322 12.8622 57.2322 13.2743 57.491 13.5331C57.7497 13.7918 58.1618 13.7918 58.4206 13.5331C59.4269 12.5267 61.0658 12.5267 62.0722 13.5331C62.3309 13.7918 62.7431 13.7918 63.0018 13.5331C63.2606 13.2743 63.2606 12.8622 63.0018 12.6034Z" fill="currentColor"/>
  <path d="M61.9464 28.6477C62.8833 28.6477 63.6428 27.8882 63.6428 26.9513C63.6428 26.0144 62.8833 25.2549 61.9464 25.2549C61.0095 25.2549 60.25 26.0144 60.25 26.9513C60.25 27.8882 61.0095 28.6477 61.9464 28.6477Z" fill="currentColor" stroke="currentColor" stroke-miterlimit="10"/>
</svg>