<?xml version="1.0" standalone="no"?>
<!DOCTYPE svg PUBLIC "-//W3C//DTD SVG 20010904//EN"
 "http://www.w3.org/TR/2001/REC-SVG-20010904/DTD/svg10.dtd">
<svg version="1.0" xmlns="http://www.w3.org/2000/svg"
 width="1254.000000pt" height="1254.000000pt" viewBox="0 0 1254.000000 1254.000000"
 preserveAspectRatio="xMidYMid meet">
<metadata>
Created by potrace 1.16, written by Peter Selinger 2001-2019
</metadata>
<g transform="translate(0.000000,1254.000000) scale(0.100000,-0.100000)"
fill="#000000" stroke="none">
<path d="M9708 10627 c-160 -55 -280 -185 -324 -352 -18 -64 -18 -186 0 -250
30 -114 64 -162 246 -353 96 -101 219 -230 273 -287 l98 -104 -978 -4 c-858
-3 -990 -6 -1078 -20 -130 -22 -288 -62 -395 -99 -128 -44 -372 -167 -491
-247 -127 -85 -301 -232 -394 -333 -136 -148 -315 -407 -425 -615 -24 -46 -47
-83 -51 -83 -3 0 -30 45 -59 101 -65 123 -225 365 -313 475 -76 94 -243 260
-337 335 -236 190 -535 340 -830 418 -258 68 -182 65 -1691 68 -1171 3 -1377
2 -1437 -11 -236 -49 -385 -239 -385 -491 0 -200 98 -362 271 -448 l85 -42
1406 -6 c1515 -5 1434 -3 1596 -55 232 -76 452 -226 615 -421 119 -143 232
-341 465 -817 l132 -269 -60 -136 c-101 -226 -342 -700 -432 -850 -176 -292
-337 -483 -528 -627 -119 -90 -288 -175 -424 -212 l-98 -27 -1335 -5 -1335 -5
-56 -23 c-122 -49 -204 -126 -259 -243 -70 -150 -67 -339 6 -485 62 -123 214
-228 351 -242 38 -4 640 -7 1338 -7 1175 0 1279 1 1383 18 679 108 1217 493
1654 1183 41 65 122 206 178 312 l103 194 97 -190 c130 -254 233 -425 365
-600 336 -450 751 -745 1210 -861 219 -55 199 -54 1199 -58 512 -3 936 -8 944
-12 10 -6 -59 -87 -260 -306 -150 -163 -287 -320 -305 -347 -98 -153 -108
-359 -27 -520 32 -63 121 -158 180 -193 149 -87 333 -93 491 -15 80 40 94 52
802 758 640 638 723 724 751 779 83 170 81 332 -6 505 -34 68 -85 122 -742
783 -388 391 -726 725 -751 742 -98 69 -245 102 -367 83 -269 -42 -456 -311
-401 -576 29 -138 57 -176 313 -436 129 -130 234 -242 234 -248 0 -9 -212 -10
-847 -5 -787 6 -855 8 -946 26 -110 22 -168 43 -281 102 -253 131 -453 351
-681 747 -86 149 -336 649 -432 862 l-61 137 82 173 c180 377 334 667 425 801
214 315 543 527 897 577 55 7 363 10 1014 8 l934 -3 -119 -130 c-66 -72 -190
-206 -275 -298 -85 -93 -170 -194 -188 -225 -117 -205 -93 -446 60 -608 99
-105 212 -155 353 -157 100 -1 171 16 260 61 79 40 46 8 971 942 487 491 544
552 577 616 45 88 67 176 67 275 0 109 -14 173 -61 269 -41 83 -51 94 -498
545 -957 966 -991 998 -1056 1030 -88 41 -149 55 -250 55 -67 0 -107 -6 -157
-23z"/>
</g>
</svg>
