<svg xmlns="http://www.w3.org/2000/svg" width="20" height="21" viewBox="0 0 20 21" fill="none">
  <g clip-path="url(#clip0_38848_180271)">
    <path d="M10.5996 2.43839C5.52465 2.08005 1.33298 6.27172 1.69132 11.3467C1.99132 15.7551 5.84132 19.0801 10.258 19.0801H13.333C13.7913 19.0801 14.1663 18.7051 14.1663 18.2467C14.1663 17.7884 13.7913 17.4134 13.333 17.4134H10.2746C7.16632 17.4134 4.31632 15.3967 3.54132 12.3884C2.29965 7.55505 6.79965 3.04672 11.633 4.29672C14.6496 5.06339 16.6663 7.91339 16.6663 11.0217V11.9384C16.6663 12.5967 16.0746 13.2467 15.4163 13.2467C14.758 13.2467 14.1663 12.5967 14.1663 11.9384V10.8967C14.1663 8.80505 12.683 6.92172 10.6163 6.63005C7.78298 6.22172 5.39132 8.67172 5.89965 11.5217C6.18298 13.1134 7.42465 14.4301 8.99965 14.8051C10.533 15.1634 11.9913 14.6717 12.9496 13.6967C13.6913 14.7134 15.1747 15.2467 16.533 14.7051C17.6496 14.2634 18.333 13.1217 18.333 11.9217V11.0134C18.333 6.58839 15.008 2.73839 10.5996 2.43839ZM9.99965 13.2467C8.61632 13.2467 7.49965 12.1301 7.49965 10.7467C7.49965 9.36339 8.61632 8.24672 9.99965 8.24672C11.383 8.24672 12.4996 9.36339 12.4996 10.7467C12.4996 12.1301 11.383 13.2467 9.99965 13.2467Z" fill="white"/>
  </g>
  <defs>
    <clipPath id="clip0_38848_180271">
      <rect width="20" height="20" fill="white" transform="translate(0 0.74707)"/>
    </clipPath>
  </defs>
</svg>