<svg xmlns="http://www.w3.org/2000/svg" width="16" height="16" viewBox="0 0 16 16" fill="none">
  <path d="M14.0245 10.4632L11.9079 10.2215C11.3995 10.1632 10.8995 10.3382 10.5412 10.6965L9.00788 12.2299C6.64955 11.0299 4.71621 9.10488 3.51621 6.73822L5.05788 5.19655C5.41621 4.83822 5.59121 4.33822 5.53288 3.82988L5.29121 1.72988C5.19121 0.888216 4.48288 0.254883 3.63288 0.254883H2.19121C1.24955 0.254883 0.466212 1.03822 0.524546 1.97988C0.966212 9.09655 6.65788 14.7799 13.7662 15.2215C14.7079 15.2799 15.4912 14.4965 15.4912 13.5549V12.1132C15.4995 11.2715 14.8662 10.5632 14.0245 10.4632Z" fill="white"/>
</svg>