<svg xmlns="http://www.w3.org/2000/svg" width="20" height="20" viewBox="0 0 20 20" fill="none">
  <path d="M10.0001 1.66699C5.40008 1.66699 1.66675 5.40033 1.66675 10.0003C1.66675 14.6003 5.40008 18.3337 10.0001 18.3337C14.6001 18.3337 18.3334 14.6003 18.3334 10.0003C18.3334 5.40033 14.6001 1.66699 10.0001 1.66699ZM10.0001 16.667C6.32508 16.667 3.33341 13.6753 3.33341 10.0003C3.33341 6.32533 6.32508 3.33366 10.0001 3.33366C13.6751 3.33366 16.6667 6.32533 16.6667 10.0003C16.6667 13.6753 13.6751 16.667 10.0001 16.667ZM13.8251 6.31699L8.33342 11.8087L6.17508 9.65866L5.00008 10.8337L8.33342 14.167L15.0001 7.50033L13.8251 6.31699Z" fill="#1C958F"/>
</svg>