<svg width="20" height="20" viewBox="0 0 20 20" fill="none" xmlns="http://www.w3.org/2000/svg">
  <path d="M5.833 2.917H14.167V4.583H15.833C16.75 4.583 17.5 5.333 17.5 6.25V7.083C17.5 9.208 15.9 10.942 13.842 11.2C13.317 12.45 12.192 13.392 10.833 13.667V16.25H14.167V17.917H5.833V16.25H9.167V13.667C7.808 13.392 6.683 12.45 6.158 11.2C4.1 10.942 2.5 9.208 2.5 7.083V6.25C2.5 5.333 3.25 4.583 4.167 4.583H5.833V2.917ZM4.167 6.25V7.083C4.167 8.167 4.867 9.083 5.833 9.433V6.25H4.167ZM7.5 4.583V9.583C7.5 10.958 8.625 12.083 10 12.083C11.375 12.083 12.5 10.958 12.5 9.583V4.583H7.5ZM14.167 6.25V9.433C15.133 9.083 15.833 8.167 15.833 7.083V6.25H14.167Z" fill="currentColor"/>
</svg>