<svg xmlns="http://www.w3.org/2000/svg" width="200" height="200" viewBox="0 0 200 200" fill="none">
  <path d="M162.283 60V66.2857" stroke="#3A725B" stroke-width="1.71429" stroke-miterlimit="10"/>
  <path d="M159.426 63.4297H165.14" stroke="#3A725B" stroke-width="1.71429" stroke-miterlimit="10"/>
  <path d="M36.5703 36.5703V42.856" stroke="#3A725B" stroke-width="1.71429" stroke-miterlimit="10"/>
  <path d="M33.1367 39.4297H39.4224" stroke="#3A725B" stroke-width="1.71429" stroke-miterlimit="10"/>
  <path d="M84.284 25.1423C85.0727 25.1423 85.7126 24.5024 85.7126 23.7137C85.7126 22.9251 85.0727 22.2852 84.284 22.2852C83.4954 22.2852 82.8555 22.9251 82.8555 23.7137C82.8555 24.5024 83.4954 25.1423 84.284 25.1423Z" fill="#3A725B"/>
  <path d="M128.986 80.4953C117.023 80.4953 104.846 80.0089 93.4522 76.8409C82.275 73.7431 72.0117 67.7295 62.8653 60.777C56.877 56.2513 51.4303 52.6514 43.656 53.1951C36.0431 53.6112 28.766 56.4645 22.9027 61.3336C13.0117 69.9014 14.4984 85.9367 18.4584 97.2043C24.405 114.168 42.5 125.92 57.8794 133.603C75.6463 142.47 95.1706 147.612 114.739 150.58C131.892 153.178 153.931 155.077 168.798 143.882C182.448 133.6 186.192 110.126 182.849 94.2755C182.039 89.5885 179.543 85.3592 175.83 82.3811C166.238 75.3843 151.931 80.0532 141.155 80.2951C137.154 80.3809 133.079 80.4797 128.991 80.4953H128.986Z" stroke="#3A725B" stroke-width="1.71429" stroke-miterlimit="10"/>
  <path d="M99.7154 178.286C128.591 178.286 152.001 176.878 152.001 175.143C152.001 173.408 128.591 172 99.7154 172C70.8393 172 47.4297 173.408 47.4297 175.143C47.4297 176.878 70.8393 178.286 99.7154 178.286Z" fill="#3A725B"/>
  <path d="M121.844 26.8965L52.1021 36.3338C49.8694 36.6355 48.302 38.6931 48.6035 40.9275L62.1272 141.035C62.4287 143.27 64.4847 144.838 66.7174 144.536L136.459 135.099C138.692 134.798 140.259 132.74 139.958 130.506L126.434 30.3978C126.133 28.1633 124.077 26.5948 121.844 26.8965Z" fill="#3A725B"/>
  <path d="M145.074 41.7109H74.9231C72.6769 41.7109 70.8555 43.5389 70.8555 45.7932V146.772C70.8555 149.026 72.6769 150.854 74.9231 150.854H145.074C147.32 150.854 149.141 149.026 149.141 146.772V45.7932C149.141 43.5389 147.32 41.7109 145.074 41.7109Z" fill="white" stroke="#3A725B" stroke-width="1.71429" stroke-miterlimit="10"/>
  <path d="M142.77 45.1445H77.2293C75.6024 45.1445 74.2852 46.4525 74.2852 48.0682V104.507C74.2852 106.122 75.6024 107.43 77.2293 107.43H142.77C144.397 107.43 145.714 106.122 145.714 104.507V48.0682C145.714 46.4525 144.397 45.1445 142.77 45.1445Z" fill="white" stroke="#3A725B" stroke-width="1.71429" stroke-miterlimit="10"/>
  <path d="M118.89 90.1326C119.358 90.1221 119.812 89.9683 120.191 89.6944C120.57 89.4205 120.857 89.0371 121.011 88.5937C121.168 88.153 121.184 87.6731 121.061 87.2218C120.938 86.7706 120.679 86.3664 120.322 86.0664C117.33 83.5939 113.558 82.2533 109.673 82.2898C105.788 82.3237 102.042 83.7269 99.0951 86.2542C98.7398 86.5542 98.4838 86.9558 98.3636 87.4044C98.2434 87.853 98.2617 88.3277 98.4158 88.7659C98.5726 89.2041 98.8574 89.5849 99.2336 89.8561C99.6098 90.1274 100.062 90.2786 100.527 90.2891L118.885 90.1326H118.89Z" fill="white" stroke="#3A725B" stroke-width="1.71429" stroke-miterlimit="10"/>
  <path d="M130.285 75.4319L122.285 70.8667L130.285 66.2891" fill="white"/>
  <path d="M130.285 75.4319L122.285 70.8667L130.285 66.2891" stroke="#3A725B" stroke-width="1.71429" stroke-miterlimit="10"/>
  <path d="M89.1406 75.428L97.1406 70.8628L89.1406 66.2852" fill="white"/>
  <path d="M89.1406 75.428L97.1406 70.8628L89.1406 66.2852" stroke="#3A725B" stroke-width="1.71429" stroke-miterlimit="10"/>
  <path d="M43.4297 106.285V111.999" stroke="#3A725B" stroke-width="1.71429" stroke-miterlimit="10"/>
  <path d="M40.5703 109.141H46.2846" stroke="#3A725B" stroke-width="1.71429" stroke-miterlimit="10"/>
  <path d="M159.712 110.287C160.5 110.287 161.14 109.647 161.14 108.858C161.14 108.07 160.5 107.43 159.712 107.43C158.923 107.43 158.283 108.07 158.283 108.858C158.283 109.647 158.923 110.287 159.712 110.287Z" fill="#3A725B"/>
  <path d="M96.5424 138.399V133.254H87.7637V131.57L96.194 119.508H98.9547V131.253H101.598V133.257H98.9547V138.401H96.5398L96.5424 138.399ZM96.5424 131.25V124.943C96.5424 123.953 96.5709 122.965 96.6307 121.977H96.5424C95.9627 123.082 95.4973 123.896 94.9722 124.767L90.3502 131.19V131.247H96.5424V131.25Z" fill="#3A725B"/>
  <path d="M116.113 128.747C116.113 135.171 113.729 138.717 109.546 138.717C105.855 138.717 103.354 135.257 103.297 129.007C103.297 122.672 106.032 119.184 109.866 119.184C113.7 119.184 116.115 122.729 116.115 128.747H116.113ZM105.852 129.038C105.852 133.952 107.363 136.741 109.689 136.741C112.304 136.741 113.555 133.689 113.555 128.864C113.555 124.04 112.364 121.162 109.718 121.162C107.482 121.162 105.852 123.894 105.852 129.038Z" fill="#3A725B"/>
  <path d="M126.376 138.399V133.254H117.598V131.57L126.028 119.508H128.789V131.253H131.435V133.257H128.789V138.401H126.376V138.399ZM126.376 131.25V124.943C126.376 123.953 126.405 122.965 126.465 121.977H126.376C125.797 123.082 125.331 123.896 124.806 124.767L120.184 131.19V131.247H126.376V131.25Z" fill="#3A725B"/>
</svg>