<svg xmlns="http://www.w3.org/2000/svg" width="18" height="23" viewBox="0 0 18 23" fill="none">
  <path fill-rule="evenodd" clip-rule="evenodd" d="M9.94559 5.54516L7.73942 1.14957C7.53482 0.741919 6.93596 0.79863 6.81152 1.23744L0.835199 22.311C0.697879 22.7952 1.28138 23.156 1.65321 22.8168L6.2321 18.6396L5.19089 22.3111C5.05357 22.7953 5.63705 23.1561 6.00889 22.8169L17.0842 12.7137C17.4152 12.4118 17.505 11.9267 17.304 11.5263L12.0952 1.14946C11.8905 0.741829 11.2917 0.798552 11.1673 1.23735L9.94559 5.54516ZM7.59192 19.3424L8.33541 16.7208L12.7278 12.7137C13.0587 12.4118 13.1485 11.9267 12.9476 11.5263L10.9418 7.53008L11.9085 4.12129L15.4537 11.1838C15.6547 11.5842 15.5649 12.0693 15.2339 12.3712L7.59192 19.3424ZM10.8776 12.3712C11.2085 12.0693 11.2983 11.5842 11.0974 11.1839L10.3359 9.66672L9.33965 7.6818L7.55275 4.12156L3.23629 19.3422L7.00888 15.9005L9.11219 13.9817L10.8776 12.3712Z" fill="#1B6163"/>
</svg>