<svg xmlns="http://www.w3.org/2000/svg" width="20" height="20" viewBox="0 0 20 20" fill="none">
  <path d="M9.6 19.2C9.2 19.2 8.81667 19.125 8.45 18.975C8.08333 18.825 7.75833 18.6083 7.475 18.325C7.075 17.925 6.69583 17.65 6.3375 17.5C5.97917 17.35 5.50833 17.275 4.925 17.275C4.09167 17.275 3.38333 16.9833 2.8 16.4C2.21667 15.8167 1.925 15.1083 1.925 14.275C1.925 13.7083 1.85 13.2417 1.7 12.875C1.55 12.5083 1.275 12.125 0.875 11.725C0.591667 11.4417 0.375 11.1167 0.225 10.75C0.075 10.3833 0 10 0 9.6C0 9.2 0.075 8.81667 0.225 8.45C0.375 8.08333 0.591667 7.75833 0.875 7.475C1.275 7.075 1.55 6.69583 1.7 6.3375C1.85 5.97917 1.925 5.50833 1.925 4.925C1.925 4.09167 2.21667 3.38333 2.8 2.8C3.38333 2.21667 4.09167 1.925 4.925 1.925C5.49167 1.925 5.95833 1.85 6.325 1.7C6.69167 1.55 7.075 1.275 7.475 0.875C7.75833 0.591667 8.08333 0.375 8.45 0.225C8.81667 0.075 9.2 0 9.6 0C10 0 10.3833 0.075 10.75 0.225C11.1167 0.375 11.4417 0.591667 11.725 0.875C12.125 1.275 12.5042 1.55 12.8625 1.7C13.2208 1.85 13.6917 1.925 14.275 1.925C15.1083 1.925 15.8167 2.21667 16.4 2.8C16.9833 3.38333 17.275 4.09167 17.275 4.925C17.275 5.49167 17.35 5.95833 17.5 6.325C17.65 6.69167 17.925 7.075 18.325 7.475C18.6083 7.75833 18.825 8.08333 18.975 8.45C19.125 8.81667 19.2 9.2 19.2 9.6C19.2 10 19.125 10.3833 18.975 10.75C18.825 11.1167 18.6083 11.4417 18.325 11.725C17.925 12.125 17.65 12.5042 17.5 12.8625C17.35 13.2208 17.275 13.6917 17.275 14.275C17.275 15.1083 16.9833 15.8167 16.4 16.4C15.8167 16.9833 15.1083 17.275 14.275 17.275C13.7083 17.275 13.2417 17.35 12.875 17.5C12.5083 17.65 12.125 17.925 11.725 18.325C11.4417 18.6083 11.1167 18.825 10.75 18.975C10.3833 19.125 10 19.2 9.6 19.2ZM12.3 13.8C12.7167 13.8 13.0708 13.6542 13.3625 13.3625C13.6542 13.0708 13.8 12.7167 13.8 12.3C13.8 11.8833 13.6542 11.5292 13.3625 11.2375C13.0708 10.9458 12.7167 10.8 12.3 10.8C11.8833 10.8 11.5292 10.9458 11.2375 11.2375C10.9458 11.5292 10.8 11.8833 10.8 12.3C10.8 12.7167 10.9458 13.0708 11.2375 13.3625C11.5292 13.6542 11.8833 13.8 12.3 13.8ZM6.575 12.65C6.75833 12.8333 6.96817 12.925 7.2045 12.925C7.44083 12.925 7.64767 12.8333 7.825 12.65L12.5707 7.929C12.7569 7.743 12.8458 7.52917 12.8375 7.2875C12.8292 7.04583 12.7333 6.83333 12.55 6.65C12.3667 6.46667 12.1583 6.375 11.925 6.375C11.6917 6.375 11.4816 6.46758 11.2947 6.65275L6.55525 11.3722C6.36842 11.5574 6.27917 11.7708 6.2875 12.0125C6.29583 12.2542 6.39167 12.4667 6.575 12.65ZM6.9 8.4C7.31667 8.4 7.67083 8.25417 7.9625 7.9625C8.25417 7.67083 8.4 7.31667 8.4 6.9C8.4 6.48333 8.25417 6.12917 7.9625 5.8375C7.67083 5.54583 7.31667 5.4 6.9 5.4C6.48333 5.4 6.12917 5.54583 5.8375 5.8375C5.54583 6.12917 5.4 6.48333 5.4 6.9C5.4 7.31667 5.54583 7.67083 5.8375 7.9625C6.12917 8.25417 6.48333 8.4 6.9 8.4Z" fill="#4E3F09"/>
</svg>