<svg width="24" height="24" viewBox="0 0 16 16" fill="none" xmlns="http://www.w3.org/2000/svg">
<path d="M10.9997 1.88379C9.83967 1.88379 8.72634 2.42379 7.99967 3.27712C7.27301 2.42379 6.15967 1.88379 4.99967 1.88379C2.94634 1.88379 1.33301 3.49712 1.33301 5.55046C1.33301 8.07046 3.59967 10.1238 7.03301 13.2438L7.99967 14.1171L8.96634 13.2371C12.3997 10.1238 14.6663 8.07046 14.6663 5.55046C14.6663 3.49712 13.053 1.88379 10.9997 1.88379ZM8.06634 12.2505L7.99967 12.3171L7.93301 12.2505C4.75967 9.37712 2.66634 7.47712 2.66634 5.55046C2.66634 4.21712 3.66634 3.21712 4.99967 3.21712C6.02634 3.21712 7.02634 3.87712 7.37967 4.79046H8.62634C8.97301 3.87712 9.97301 3.21712 10.9997 3.21712C12.333 3.21712 13.333 4.21712 13.333 5.55046C13.333 7.47712 11.2397 9.37712 8.06634 12.2505Z" fill="currentColor"/>
</svg>
