<svg width="40" height="40" viewBox="0 0 40 40" fill="none" xmlns="http://www.w3.org/2000/svg">
<rect width="40" height="40" rx="20" fill="#FFF0E4"/>
<g clip-path="url(#clip0_604_7921)">
<path d="M10.2656 22.9326C10.3797 22.6457 10.5982 22.5187 10.9023 22.4199C11.2919 22.2929 11.691 22.3212 12.0758 22.2224C12.2516 22.1754 12.4417 22.1801 12.6032 22.0907C12.6174 22.0813 12.6412 22.086 12.6555 22.0907C12.9263 22.1471 13.1733 22.0437 13.4299 21.9919C13.5629 21.9684 13.734 21.9731 13.8813 22.0107C13.9335 22.0248 13.9478 22.0766 13.9478 22.133C13.9478 22.2083 13.8955 22.2412 13.8385 22.2694C13.5012 22.4482 13.1591 22.6316 12.8217 22.815C12.2991 23.0925 11.7765 23.3653 11.2301 23.6005C10.8073 23.784 10.4747 23.657 10.2989 23.2383C10.2941 23.2242 10.2751 23.2101 10.2656 23.196C10.2656 23.1066 10.2656 23.0173 10.2656 22.9326Z" fill="#D4803C"/>
<path d="M29.716 23.1962C29.4974 23.6054 29.3121 23.7277 28.9415 23.6713C28.799 23.6477 28.6612 23.5678 28.5282 23.5019C27.996 23.2479 27.4687 22.9892 26.9508 22.7023C26.7132 22.5659 26.4614 22.4483 26.2191 22.3213C26.1621 22.2931 26.1051 22.2602 26.0671 22.2179C26.0006 22.1379 26.0053 22.0438 26.1146 22.0062C26.2381 21.9639 26.3997 21.978 26.4994 22.0062C26.7085 22.0674 26.9128 22.1003 27.1218 22.1144C27.7015 22.152 28.2574 22.3166 28.8322 22.3778C28.9985 22.3966 29.1601 22.453 29.3264 22.5001C29.5402 22.5659 29.6209 22.7541 29.7112 22.9328C29.716 23.0175 29.716 23.1068 29.716 23.1962Z" fill="#D4803C"/>
<path d="M21.1055 13.9585C21.2718 14.189 21.3478 14.4618 21.4618 14.7205C21.7279 15.3131 22.0082 15.9057 22.2362 16.5125C22.3408 16.7947 22.5118 16.8747 22.7731 16.8935C23.4573 16.9311 24.1367 17.0111 24.8161 17.0769C25.2912 17.124 25.7664 17.1522 26.2415 17.1945C26.6406 17.2274 27.0397 17.2604 27.4388 17.3121C27.5956 17.3309 27.7713 17.3874 27.8141 17.5755C27.8521 17.7542 27.8141 17.9141 27.6621 18.0458C26.479 19.0618 25.3102 20.0966 24.113 21.1031C23.8516 21.3242 23.8849 21.5217 23.9514 21.7851C24.1272 22.5001 24.2887 23.215 24.4503 23.9346C24.6023 24.6167 24.7924 25.2893 24.9064 25.9807C24.9207 26.0653 24.9587 26.1453 24.9824 26.23C25.0347 26.4228 24.8874 26.7379 24.7021 26.8038C24.6498 26.8226 24.5976 26.8085 24.5406 26.7756C23.6141 26.2347 22.6876 25.6938 21.7659 25.1529C21.21 24.8283 20.6541 24.5038 20.103 24.1745C20.0175 24.1228 19.9604 24.1369 19.8844 24.1839C19.0387 24.6825 18.1883 25.1811 17.3378 25.6749C16.9577 25.8913 16.5729 26.0983 16.207 26.3334C16.2403 26.1406 16.2783 25.943 16.3116 25.7502C16.5396 24.3627 16.8912 23.0033 17.3283 21.6676C17.9032 19.9225 18.6064 18.2293 19.4853 16.6113C19.9509 15.7552 20.4356 14.9086 20.9867 14.1043C21.0105 14.0338 21.0437 13.982 21.1055 13.9585Z" fill="#D4803C"/>
<path d="M21.1051 13.9585C21.0433 13.982 21.0101 14.0337 20.9721 14.0902C20.4257 14.8992 19.9363 15.7411 19.4707 16.5971C18.5917 18.2198 17.8886 19.9084 17.3137 21.6534C16.8766 22.9892 16.525 24.3485 16.2969 25.736C16.2637 25.9336 16.2256 26.1264 16.1924 26.3193C15.9833 26.4651 15.7695 26.6062 15.532 26.705C15.2802 26.8132 15.0141 26.6673 14.9761 26.3992C14.9618 26.2817 14.9666 26.1641 14.9951 26.0324C15.0616 25.7455 15.1994 25.4679 15.2184 25.1763C15.2422 24.8283 15.4179 24.5178 15.4465 24.1698C15.475 23.8405 15.646 23.5395 15.6175 23.1962C15.608 23.0786 15.741 23.0033 15.7363 22.8716C15.7315 22.6835 15.8265 22.5188 15.8265 22.3166C15.8265 22.1802 15.9121 22.0062 15.9691 21.8509C16.1116 21.4559 16.0023 21.1925 15.6555 20.9432C15.2612 20.661 14.9286 20.2988 14.5532 19.9884C14.1731 19.6732 13.8168 19.3393 13.432 19.0241C13.0281 18.6949 12.648 18.3374 12.2632 17.9847C12.1539 17.8812 12.0589 17.7589 12.1301 17.5896C12.2062 17.4108 12.3249 17.3121 12.5387 17.2838C12.7763 17.2509 13.0281 17.3074 13.2562 17.1757C13.3369 17.1286 13.4557 17.2133 13.5745 17.1945C13.9071 17.1427 14.2492 17.1333 14.5865 17.1051C15.0236 17.0675 15.4655 17.0628 15.8978 16.9828C16.2874 16.9123 16.677 16.9452 17.0619 16.884C17.1949 16.8605 17.3327 16.8323 17.4752 16.8417C17.594 16.8464 17.6177 16.7288 17.6557 16.6489C17.8078 16.3196 17.9456 15.9857 18.0929 15.6517C18.2876 15.1955 18.4824 14.7392 18.6772 14.283C18.9718 13.601 19.2711 12.9237 19.5752 12.2464C19.656 12.0676 19.7558 11.8983 20.0123 11.9407C20.1596 11.9642 20.2784 12.0347 20.3306 12.157C20.5872 12.7261 20.8295 13.3 21.0766 13.8738C21.1051 13.902 21.1003 13.9302 21.1051 13.9585Z" fill="#D4803C"/>
<path d="M14.2692 11.7666C14.4973 11.8183 14.7016 11.8889 14.8251 12.0958C15.3382 12.9519 15.7326 13.8644 16.1697 14.758C16.2077 14.8333 16.2362 14.9133 16.1554 14.9744C16.0652 15.0449 15.9797 14.9932 15.9179 14.9321C15.7896 14.8145 15.6661 14.6875 15.5425 14.5605C15.1054 14.1231 14.6208 13.728 14.2027 13.2717C14.0412 13.0977 13.8844 12.919 13.7561 12.7214C13.6041 12.4956 13.6183 12.2511 13.7656 12.0159C13.8844 11.8325 14.0934 11.823 14.2692 11.7666Z" fill="#D4803C"/>
<path d="M19.3918 29.433C19.4061 28.9109 19.5248 28.4077 19.6199 27.8997C19.6769 27.5799 19.7196 27.2506 19.7719 26.9308C19.7957 26.785 19.8289 26.6439 19.8717 26.498C19.8907 26.4275 19.9429 26.3805 20.0285 26.3899C20.1187 26.3946 20.1425 26.4557 20.1567 26.5263C20.2138 26.8414 20.266 27.1565 20.3373 27.467C20.4608 28.0032 20.4893 28.5488 20.6081 29.0897C20.6461 29.2637 20.6651 29.4613 20.6414 29.6494C20.6081 29.894 20.2518 30.2044 20 30.1997C19.7244 30.195 19.4156 29.9034 19.3966 29.6165C19.3871 29.5553 19.3918 29.4942 19.3918 29.433Z" fill="#D4803C"/>
<path d="M25.7324 11.7852C25.951 11.804 26.1505 11.898 26.2646 12.1332C26.3786 12.3684 26.3596 12.5942 26.1933 12.8011C26.084 12.9375 25.9653 13.0692 25.8417 13.1915C25.2573 13.7794 24.6634 14.358 24.0553 14.9224C23.9888 14.9835 23.927 15.0447 23.8272 14.9741C23.718 14.8989 23.7797 14.8283 23.8177 14.7484C24.1551 14.0617 24.4876 13.3749 24.825 12.6929C24.9295 12.486 25.0483 12.2884 25.1671 12.0909C25.2858 11.8933 25.4664 11.7899 25.7324 11.7852Z" fill="#D4803C"/>
</g>
<defs>
<clipPath id="clip0_604_7921">
<rect width="24" height="24" fill="white" transform="translate(8 8)"/>
</clipPath>
</defs>
</svg>
