<svg preserveAspectRatio="none" width="100%" height="100%" overflow="visible" style="display: block;" viewBox="0 0 231 231" fill="none" xmlns="http://www.w3.org/2000/svg">
<g id="No search result found">
<path id="Vector" d="M154.229 87.0732C140.415 87.0732 126.353 86.5125 113.199 82.8484C100.293 79.2681 88.4435 72.318 77.8801 64.282C70.9656 59.0498 64.6778 54.8757 55.6979 55.5025C46.9132 55.977 38.5143 59.2579 31.7343 64.8605C20.3133 74.8631 22.0286 93.3965 26.6011 106.368C33.4674 125.959 54.3606 139.608 72.1201 148.436C92.6353 158.685 115.18 164.643 137.774 168.061C157.578 171.08 183.029 173.26 200.192 160.337C215.955 148.436 220.279 121.303 216.417 102.985C215.48 97.5731 212.598 92.6911 208.312 89.2529C197.239 81.1483 180.717 86.5632 168.274 86.8271C163.653 86.9261 158.949 87.0428 154.229 87.0758V87.0732Z" stroke="var(--stroke-0, #4E3F09)" stroke-width="0.659074" stroke-miterlimit="10"/>
<path id="Vector 2" d="M121.847 176.715L88.3725 115.852C79.1369 99.0603 81.4194 78.2804 94.08 63.8934C108.929 47.02 135.132 46.7218 150.384 63.232C163.912 77.8763 166.35 99.6332 156.382 116.898L121.847 176.715Z" fill="var(--fill-0, #4E3F09)"/>
<path id="Vector_2" d="M115.866 201.211C149.327 201.211 176.453 199.518 176.453 197.432C176.453 195.347 149.327 193.654 115.866 193.654C82.405 193.654 55.2798 195.347 55.2798 197.432C55.2798 199.518 82.405 201.211 115.866 201.211Z" fill="var(--fill-0, #4E3F09)"/>
<path id="Vector 1" d="M113.762 179.025L80.2875 118.162C71.0519 101.37 73.3344 80.5904 85.995 66.2034C100.844 49.33 127.047 49.0318 142.299 65.542C155.827 80.1863 158.265 101.943 148.297 119.208L113.762 179.025Z" fill="var(--fill-0, white)" stroke="var(--stroke-0, #4E3F09)" stroke-width="0.66"/>
<path id="Vector_3" d="M68.8195 48.7085V55.8057" stroke="var(--stroke-0, #4E3F09)" stroke-width="0.659074" stroke-miterlimit="10"/>
<path id="Vector_4" d="M65.2552 52.2592H72.3677" stroke="var(--stroke-0, #4E3F09)" stroke-width="0.659074" stroke-miterlimit="10"/>
<path id="Vector_5" d="M127.261 40.1927C128.154 40.1927 128.877 39.4695 128.877 38.5763C128.877 37.6832 128.154 36.96 127.261 36.96C126.368 36.96 125.645 37.6832 125.645 38.5763C125.645 39.4695 126.368 40.1927 127.261 40.1927Z" fill="var(--fill-0, #4E3F09)"/>
<path id="Vector_6" d="M116.655 107.415C122.399 107.415 127.05 102.764 127.05 97.02C127.05 91.2758 122.399 86.625 116.655 86.625C110.911 86.625 106.26 91.2758 106.26 97.02C106.26 102.764 110.911 107.415 116.655 107.415Z" fill="var(--fill-0, #4E3F09)"/>
<path id="Vector_7" d="M43.2223 141.881V148.978" stroke="var(--stroke-0, #4E3F09)" stroke-width="0.659074" stroke-miterlimit="10"/>
<path id="Vector_8" d="M39.6738 145.431H46.771" stroke="var(--stroke-0, #4E3F09)" stroke-width="0.659074" stroke-miterlimit="10"/>
<path id="Vector_9" d="M149.674 85.2876C143.599 85.285 137.659 87.0841 132.604 90.4563C127.552 93.8286 123.612 98.6243 121.285 104.237C118.958 109.85 118.347 116.026 119.532 121.984C120.714 127.944 123.64 133.418 127.933 137.714C132.229 142.012 137.7 144.938 143.66 146.125C149.618 147.313 155.794 146.704 161.409 144.379C167.022 142.055 171.821 138.12 175.195 133.067C178.57 128.015 180.372 122.078 180.372 116.001C180.372 107.858 177.139 100.048 171.382 94.2878C165.624 88.5279 157.816 85.2901 149.674 85.285V85.2876Z" fill="var(--fill-0, white)" stroke="var(--stroke-0, #4E3F09)" stroke-width="0.659074" stroke-miterlimit="10"/>
<g id="Group 1000001231">
<g id="Vector_10">
<path d="M137.371 128.326C137.998 125.442 139.595 122.858 141.895 121.005C144.196 119.154 147.06 118.145 150.014 118.147C152.968 118.149 155.829 119.163 158.127 121.02C160.425 122.877 162.016 125.462 162.638 128.348" fill="var(--fill-0, white)"/>
<path d="M137.371 128.326C137.998 125.442 139.595 122.858 141.895 121.005C144.196 119.154 147.06 118.145 150.014 118.147C152.968 118.149 155.829 119.163 158.127 121.02C160.425 122.877 162.016 125.462 162.638 128.348" stroke="var(--stroke-0, #4E3F09)" stroke-width="0.621474" stroke-miterlimit="10"/>
</g>
<g id="Vector_11">
<path d="M141.916 105.421L136.29 110.406Z" fill="var(--fill-0, white)"/>
<path d="M141.916 105.421L136.29 110.406" stroke="var(--stroke-0, #4E3F09)" stroke-width="0.621474" stroke-miterlimit="10"/>
</g>
<g id="Vector_12">
<path d="M136.613 105.105L141.589 110.718Z" fill="var(--fill-0, white)"/>
<path d="M136.613 105.105L141.589 110.718" stroke="var(--stroke-0, #4E3F09)" stroke-width="0.621474" stroke-miterlimit="10"/>
</g>
<g id="Vector_13">
<path d="M164.923 106.118L159.298 111.094Z" fill="var(--fill-0, white)"/>
<path d="M164.923 106.118L159.298 111.094" stroke="var(--stroke-0, #4E3F09)" stroke-width="0.621474" stroke-miterlimit="10"/>
</g>
<g id="Vector_14">
<path d="M159.625 105.792L164.601 111.417Z" fill="var(--fill-0, white)"/>
<path d="M159.625 105.792L164.601 111.417" stroke="var(--stroke-0, #4E3F09)" stroke-width="0.621474" stroke-miterlimit="10"/>
</g>
</g>
<path id="Vector_15" d="M171.524 138.28L179.71 146.465" stroke="var(--stroke-0, #4E3F09)" stroke-width="0.659074" stroke-miterlimit="10"/>
<path id="Vector_16" d="M178.786 142.49L176.244 145.149C175.105 146.342 175.145 148.232 176.338 149.372L198.408 170.47C199.601 171.61 201.491 171.566 202.631 170.376L205.173 167.717C206.312 166.525 206.272 164.634 205.077 163.492L183.006 142.394C181.814 141.254 179.923 141.295 178.781 142.487L178.786 142.49Z" fill="var(--fill-0, #4E3F09)"/>
<path id="Vector_17" d="M193.97 38.5752V45.6876" stroke="var(--stroke-0, #4E3F09)" stroke-width="0.659074" stroke-miterlimit="10"/>
<path id="Vector_18" d="M190.406 42.1395H197.518" stroke="var(--stroke-0, #4E3F09)" stroke-width="0.659074" stroke-miterlimit="10"/>
</g>
</svg>
