<svg preserveAspectRatio="none" width="100%" height="100%" overflow="visible" style="display: block;" viewBox="0 0 24 24" fill="none" xmlns="http://www.w3.org/2000/svg">
  <g id="location_on">
    <mask id="mask0_location" style="mask-type:alpha" maskUnits="userSpaceOnUse" x="0" y="0" width="24" height="24">
      <rect width="24" height="24" fill="var(--fill-0, #D9D9D9)"/>
    </mask>
    <g mask="url(#mask0_location)">
      <path d="M12 11.865C12.4975 11.865 12.9228 11.6878 13.2759 11.3335C13.6292 10.9791 13.8059 10.5531 13.8059 10.0555C13.8059 9.55802 13.6288 9.1326 13.2744 8.77927C12.9201 8.42611 12.4941 8.24953 11.9964 8.24953C11.4989 8.24953 11.0736 8.4267 10.7205 8.78103C10.3671 9.13536 10.1905 9.56136 10.1905 10.059C10.1905 10.5564 10.3676 10.9818 10.7219 11.3359C11.0763 11.6892 11.5023 11.865 12 11.865ZM12 19.5132C13.9563 17.7619 15.4534 16.082 16.4913 14.4737C17.5291 12.8655 18.048 11.4567 18.048 10.2477C18.048 8.42477 17.4688 6.92611 16.3105 5.75177C15.1522 4.57744 13.7153 3.99027 12 3.99027C10.2847 3.99027 8.84783 4.57744 7.6895 5.75177C6.53117 6.92611 5.952 8.42477 5.952 10.2477C5.952 11.4567 6.47092 12.8655 7.50875 14.4737C8.54658 16.082 10.0437 17.7619 12 19.5132ZM12 21.5092C9.48333 19.3285 7.59617 17.2991 6.3385 15.4209C5.08083 13.5426 4.452 11.8182 4.452 10.2477C4.452 7.94011 5.19842 6.07186 6.69125 4.64303C8.18425 3.2142 9.95383 2.49978 12 2.49978C14.0462 2.49978 15.8157 3.2142 17.3087 4.64303C18.8016 6.07186 19.548 7.94011 19.548 10.2477C19.548 11.8182 18.9192 13.5426 17.6615 15.4209C16.4038 17.2991 14.5167 19.3285 12 21.5092Z" fill="var(--fill-0, #3C3131)"/>
    </g>
  </g>
</svg>