<svg xmlns="http://www.w3.org/2000/svg" width="64" height="64" viewBox="0 0 64 64" fill="none">
  <g clip-path="url(#clip0_25447_754148)">
    <mask id="mask0_25447_754148" style="mask-type:luminance" maskUnits="userSpaceOnUse" x="0" y="0" width="64" height="64">
      <path d="M64 0H0V64H64V0Z" fill="white"/>
    </mask>
    <g mask="url(#mask0_25447_754148)">
      <g opacity="0.484846">
        <path d="M31.9488 0.191406C49.5245 0.191406 63.7726 14.4395 63.7726 32.0152C63.7726 49.5911 49.5245 63.839 31.9488 63.839C14.3731 63.839 0.125 49.5911 0.125 32.0152C0.125 14.4395 14.3731 0.191406 31.9488 0.191406Z" fill="#E2F0E4"/>
      </g>
      <path d="M32.0242 11.2422C43.4766 11.2422 52.775 20.5406 52.775 31.993C52.775 43.4454 43.4766 52.7438 32.0242 52.7438C20.5719 52.7438 11.2734 43.4454 11.2734 31.993C11.2734 20.5406 20.5719 11.2422 32.0242 11.2422Z" fill="#169256"/>
      <path d="M32.0242 11.2422C43.4766 11.2422 52.775 20.5406 52.775 31.993C52.775 43.4454 43.4766 52.7438 32.0242 52.7438C20.5719 52.7438 11.2734 43.4454 11.2734 31.993C11.2734 20.5406 20.5719 11.2422 32.0242 11.2422Z" stroke="#169256" stroke-width="18.895" stroke-linecap="round" stroke-linejoin="round"/>
      <path d="M41.7079 25.3594L28.1837 38.8835L21.207 31.9068" stroke="white" stroke-width="3.04214" stroke-linecap="round" stroke-linejoin="round"/>
    </g>
  </g>
  <defs>
    <clipPath id="clip0_25447_754148">
      <rect width="64" height="64" fill="white"/>
    </clipPath>
  </defs>
</svg>