<svg xmlns="http://www.w3.org/2000/svg" width="24" height="24" viewBox="0 0 24 24" fill="none">
  <path fill-rule="evenodd" clip-rule="evenodd" d="M12.9449 5.54516L10.7387 1.14957C10.5341 0.741919 9.93523 0.79863 9.81079 1.23744L3.83447 22.311C3.69715 22.7952 4.28065 23.156 4.65248 22.8168L9.23137 18.6396L8.19015 22.3111C8.05283 22.7953 8.63632 23.1561 9.00815 22.8169L20.0835 12.7137C20.4144 12.4118 20.5042 11.9267 20.3033 11.5263L15.0944 1.14946C14.8898 0.741829 14.291 0.798552 14.1665 1.23735L12.9449 5.54516ZM10.5912 19.3424L11.3347 16.7208L15.7271 12.7137C16.058 12.4118 16.1478 11.9267 15.9469 11.5263L13.9411 7.53008L14.9078 4.12129L18.453 11.1838C18.6539 11.5842 18.5641 12.0693 18.2332 12.3712L10.5912 19.3424ZM13.8768 12.3712C14.2078 12.0693 14.2976 11.5842 14.0966 11.1839L13.3352 9.66672L12.3389 7.6818L10.552 4.12156L6.23556 19.3422L10.0081 15.9005L12.1115 13.9817L13.8768 12.3712Z" fill="#1B6163"/>
</svg>