<svg xmlns="http://www.w3.org/2000/svg" width="14" height="19" viewBox="0 0 14 19" fill="none">
  <path fill-rule="evenodd" clip-rule="evenodd" d="M7.76577 4.62096L6.09184 1.18901C5.88987 0.77492 5.28283 0.831195 5.16042 1.27536L0.472588 18.2852C0.338387 18.7722 0.928568 19.1283 1.29683 18.7826L4.75848 15.533L3.99995 18.2853C3.86575 18.7722 4.45591 19.1284 4.82418 18.7827L13.4623 10.6741C13.782 10.374 13.8689 9.90065 13.6767 9.50657L9.61924 1.1889C9.41725 0.774825 8.81024 0.831113 8.68783 1.27527L7.76577 4.62096ZM5.8597 16.1187L6.4618 13.934L9.93438 10.6741C10.254 10.374 10.3409 9.90067 10.1487 9.50661L8.57256 6.27506L9.35543 3.43441L12.1783 9.22117C12.3705 9.61525 12.2836 10.0886 11.9639 10.3887L5.8597 16.1187ZM8.43601 10.3887C8.75567 10.0886 8.84258 9.61527 8.65037 9.2212L8.08185 8.0556L7.27507 6.4015L5.82798 3.43464L2.33238 16.1185L5.38753 13.2504L7.09086 11.6514L8.43601 10.3887Z" fill="#1B6163"/>
</svg>